<svg xmlns="http://www.w3.org/2000/svg" x="0px" y="0px" width="50" height="50" viewBox="0,0,256,256"
style="fill:#000000;">
<g fill="#ffffff" fill-rule="nonzero" stroke="none" stroke-width="1" stroke-linecap="butt" stroke-linejoin="miter" stroke-miterlimit="10" stroke-dasharray="" stroke-dashoffset="0" font-family="none" font-weight="none" font-size="none" text-anchor="none" style="mix-blend-mode: normal"><g transform="scale(5.12,5.12)"><path d="M17,9c-9.37306,0 -17,7.62694 -17,17c0,9.3401 7.57456,16.94076 16.90234,16.99414c0.03244,0.00354 0.06503,0.0055 0.09766,0.00586c6.77695,0 12.57875,-4.0138 15.29492,-9.77344c6.4244,-0.68657 11.09636,-4.75365 12.52734,-11.00391c0.07664,-0.33757 -0.02674,-0.69077 -0.27329,-0.93375c-0.24656,-0.24298 -0.60123,-0.34118 -0.93765,-0.25961c0,0 -1.59714,0.3213 -3.61523,0.41992c5.4236,-2.29295 8.85549,-6.28188 9.97852,-11.22852c0.06702,-0.29637 -0.00432,-0.60714 -0.19391,-0.8446c-0.18959,-0.23746 -0.47684,-0.37584 -0.7807,-0.37611h-8.03516c-5.88125,0 -9.74075,0.24561 -12.75391,2.71875c-0.30139,0.24737 -0.58883,0.5197 -0.86914,0.80664c-2.8671,-2.20412 -6.45259,-3.52539 -10.3418,-3.52539zM17,11c3.41371,0 6.54635,1.14564 9.06641,3.06445c-1.48285,2.08313 -2.73527,4.97591 -4.09766,8.96094c-1.01622,-1.68863 -2.86195,-2.82617 -4.96875,-2.82617c-3.19415,0 -5.80078,2.60663 -5.80078,5.80078c0,3.19415 2.60663,5.80078 5.80078,5.80078c0.82175,0 1.6029,-0.17567 2.3125,-0.48633l-3.0332,9.64844c-7.95327,-0.37788 -14.2793,-6.91523 -14.2793,-14.96289c0,-8.29094 6.70906,-15 15,-15zM40.96484,11h6.58594c-1.59145,4.90463 -5.61197,8.63374 -12.75781,10.01758c-0.45428,0.08771 -0.78909,0.47557 -0.80953,0.93778c-0.02044,0.46221 0.27883,0.87811 0.72359,1.00558c3.13535,0.90243 5.88635,0.58048 7.60352,0.28711c-1.63741,4.77004 -5.27908,7.71163 -10.71094,8.10742c-0.37203,0.02712 -0.69804,0.25902 -0.8457,0.60156c-2.10872,4.89278 -6.79266,8.28887 -12.32422,8.82813l4.32422,-13.74023c2.45426,-7.80051 4.31427,-11.80289 6.72461,-13.78125c2.41034,-1.97836 5.66558,-2.26367 11.48633,-2.26367zM17,22.19922c2.11785,0 3.80078,1.68293 3.80078,3.80078c0,2.11785 -1.68293,3.80078 -3.80078,3.80078c-2.11785,0 -3.80078,-1.68293 -3.80078,-3.80078c0,-2.11785 1.68293,-3.80078 3.80078,-3.80078z"></path></g></g>
</svg>