<?xml version="1.0" standalone="no"?>
<!DOCTYPE svg PUBLIC "-//W3C//DTD SVG 20010904//EN"
 "http://www.w3.org/TR/2001/REC-SVG-20010904/DTD/svg10.dtd">
<svg version="1.0" xmlns="http://www.w3.org/2000/svg"
 width="1074.000000pt" height="1074.000000pt" viewBox="0 0 1074.000000 1074.000000"
 preserveAspectRatio="xMidYMid meet">
<metadata>
Created by potrace 1.14, written by Peter Selinger 2001-2017
</metadata>
<g transform="translate(0.000000,1074.000000) scale(0.100000,-0.100000)"
fill="#000000" stroke="none">
<path d="M3335 8939 c-320 -22 -617 -82 -919 -186 -1160 -397 -2040 -1369
-2320 -2563 -204 -874 -63 -1841 379 -2597 504 -859 1294 -1453 2250 -1692
466 -117 1024 -134 1499 -46 955 176 1792 729 2329 1536 103 155 212 349 272
484 l38 85 38 0 c60 0 263 28 401 55 1146 228 1949 992 2248 2142 14 51 22 94
19 97 -2 3 -65 -6 -139 -20 -178 -33 -397 -60 -600 -75 -203 -15 -606 -7 -780
16 -182 23 -449 79 -437 91 2 3 72 20 154 38 715 161 1342 445 1824 827 129
102 375 343 477 467 302 366 526 808 637 1252 9 36 18 73 21 83 5 16 -49 17
-1038 17 -1291 0 -1706 -11 -2098 -56 -407 -46 -700 -124 -975 -259 -239 -117
-384 -224 -579 -425 l-122 -128 -100 80 c-275 220 -609 414 -934 541 -482 189
-1031 273 -1545 236z m496 -2523 c196 -50 361 -142 498 -277 213 -212 321
-471 321 -768 0 -512 -357 -949 -859 -1051 -110 -22 -274 -26 -381 -10 -339
54 -642 278 -794 586 -73 148 -116 327 -116 484 0 195 75 429 193 605 51 76
194 219 272 272 258 174 576 233 866 159z"/>
</g>
</svg>
